<svg id="svg" version="1.1" xmlns="http://www.w3.org/2000/svg" xmlns:xlink="http://www.w3.org/1999/xlink" width="400" height="400" viewBox="0, 0, 400,400"><g id="svgg"><path id="path0" d="M194.200 109.821 C 177.746 116.312,137.279 139.773,124.353 150.315 C 120.071 153.808,119.714 154.986,118.509 169.600 C 117.112 186.542,117.677 229.379,119.442 240.400 C 120.407 246.425,122.378 248.494,135.200 256.944 C 137.070 258.176,138.780 259.326,139.000 259.498 C 139.527 259.911,148.118 265.211,150.800 266.778 C 151.570 267.228,152.920 268.038,153.800 268.579 C 155.485 269.616,161.554 273.088,164.726 274.829 C 165.757 275.395,167.860 276.546,169.400 277.386 C 170.940 278.226,173.370 279.570,174.800 280.372 C 178.900 282.672,188.864 287.483,193.800 289.545 C 199.252 291.822,203.046 291.789,207.000 289.430 C 207.440 289.168,208.610 288.651,209.600 288.281 C 214.179 286.573,237.900 273.886,248.895 267.264 C 256.466 262.704,258.474 261.456,262.800 258.621 C 270.519 253.562,275.976 249.532,278.120 247.304 C 279.428 245.946,279.731 245.267,280.283 242.462 L 280.926 239.200 323.013 239.200 L 365.100 239.200 365.350 237.950 C 365.488 237.263,365.600 232.583,365.600 227.550 C 365.600 221.717,365.745 218.400,366.000 218.400 C 366.261 218.400,366.400 212.000,366.400 200.000 C 366.400 188.000,366.261 181.600,366.000 181.600 C 365.745 181.600,365.600 178.283,365.600 172.450 C 365.600 167.418,365.488 162.738,365.350 162.050 L 365.100 160.800 322.950 160.800 C 285.115 160.800,280.800 160.736,280.800 160.179 C 280.800 153.843,276.381 149.612,257.638 138.000 C 256.040 137.010,253.983 135.735,253.066 135.167 C 239.889 126.996,214.798 113.677,206.043 110.204 C 200.716 108.092,198.745 108.028,194.200 109.821 " stroke="none" fill="#e9e9e9" fill-rule="evenodd"></path><path id="path1" d="M200.000 49.800 L 200.000 83.200 263.176 83.200 C 304.863 83.200,326.437 83.064,326.600 82.800 C 326.736 82.580,326.567 82.400,326.224 82.400 C 325.881 82.400,325.600 82.217,325.600 81.994 C 325.600 81.770,324.970 81.287,324.200 80.919 C 323.430 80.552,322.800 80.108,322.800 79.931 C 322.800 79.755,322.174 79.349,321.409 79.030 C 320.645 78.710,319.621 78.078,319.134 77.624 C 318.647 77.171,318.022 76.800,317.744 76.800 C 317.467 76.800,317.096 76.575,316.920 76.300 C 316.744 76.025,315.880 75.442,315.000 75.004 C 314.120 74.566,313.256 73.981,313.080 73.704 C 312.904 73.427,312.499 73.200,312.180 73.200 C 311.861 73.200,311.284 72.885,310.897 72.500 C 310.510 72.115,309.430 71.458,308.497 71.039 C 307.564 70.621,306.800 70.128,306.800 69.945 C 306.800 69.761,306.164 69.345,305.386 69.020 C 304.608 68.695,303.695 68.153,303.357 67.815 C 303.019 67.477,302.520 67.200,302.247 67.200 C 301.974 67.200,301.398 66.871,300.966 66.469 C 300.535 66.067,299.421 65.402,298.491 64.992 C 297.561 64.582,296.800 64.099,296.800 63.920 C 296.800 63.740,296.080 63.305,295.200 62.953 C 294.320 62.601,293.600 62.167,293.600 61.988 C 293.600 61.809,292.971 61.455,292.203 61.201 C 291.435 60.947,290.670 60.523,290.503 60.259 C 290.336 59.994,289.435 59.440,288.500 59.028 C 287.565 58.616,286.798 58.171,286.796 58.039 C 286.794 57.908,285.984 57.445,284.996 57.010 C 284.008 56.576,283.200 56.108,283.200 55.971 C 283.200 55.834,282.435 55.382,281.500 54.966 C 280.565 54.550,279.451 53.893,279.025 53.505 C 278.598 53.117,278.026 52.800,277.753 52.800 C 277.480 52.800,277.019 52.568,276.729 52.285 C 276.438 52.001,275.480 51.435,274.600 51.026 C 273.720 50.617,272.910 50.171,272.800 50.035 C 272.690 49.899,271.837 49.431,270.905 48.994 C 269.972 48.557,269.207 48.089,269.205 47.954 C 269.202 47.819,268.390 47.399,267.400 47.021 C 266.410 46.643,265.600 46.193,265.600 46.021 C 265.600 45.849,264.766 45.390,263.746 45.001 C 262.727 44.611,261.557 43.957,261.146 43.546 C 260.736 43.136,260.143 42.800,259.829 42.800 C 259.514 42.800,259.019 42.567,258.729 42.283 C 258.438 41.999,257.570 41.521,256.800 41.221 C 256.030 40.922,255.220 40.465,255.000 40.206 C 254.780 39.948,253.745 39.411,252.700 39.014 C 251.655 38.616,250.800 38.165,250.800 38.010 C 250.800 37.855,250.061 37.484,249.157 37.186 C 248.254 36.888,247.430 36.422,247.326 36.151 C 247.222 35.879,246.251 35.339,245.168 34.950 C 244.086 34.560,243.200 34.116,243.200 33.961 C 243.200 33.807,242.300 33.357,241.200 32.961 C 240.100 32.566,239.200 32.116,239.200 31.961 C 239.200 31.807,238.300 31.357,237.200 30.961 C 236.100 30.566,235.200 30.116,235.200 29.961 C 235.200 29.807,234.300 29.357,233.200 28.961 C 232.100 28.566,231.200 28.116,231.200 27.961 C 231.200 27.807,230.300 27.357,229.200 26.961 C 228.100 26.566,227.200 26.110,227.200 25.949 C 227.200 25.788,226.210 25.369,225.000 25.017 C 223.790 24.665,222.800 24.227,222.800 24.044 C 222.800 23.860,221.810 23.398,220.600 23.018 C 219.390 22.637,218.400 22.182,218.400 22.006 C 218.400 21.830,217.320 21.363,216.000 20.968 C 214.680 20.572,213.600 20.126,213.600 19.977 C 213.600 19.828,212.475 19.391,211.100 19.006 C 209.725 18.622,208.510 18.171,208.400 18.005 C 208.133 17.601,202.762 16.400,201.221 16.400 L 200.000 16.400 200.000 49.800 M200.000 350.200 L 200.000 383.600 201.221 383.600 C 202.762 383.600,208.133 382.399,208.400 381.995 C 208.510 381.829,209.725 381.378,211.100 380.994 C 212.475 380.609,213.600 380.158,213.600 379.991 C 213.600 379.823,214.680 379.363,216.000 378.968 C 217.320 378.572,218.400 378.119,218.400 377.962 C 218.400 377.804,219.390 377.363,220.600 376.982 C 221.810 376.602,222.800 376.140,222.800 375.956 C 222.800 375.773,223.790 375.335,225.000 374.983 C 226.210 374.631,227.200 374.212,227.200 374.051 C 227.200 373.890,228.100 373.434,229.200 373.039 C 230.300 372.643,231.200 372.193,231.200 372.039 C 231.200 371.884,232.100 371.434,233.200 371.039 C 234.300 370.643,235.200 370.193,235.200 370.039 C 235.200 369.884,236.100 369.434,237.200 369.039 C 238.300 368.643,239.200 368.193,239.200 368.039 C 239.200 367.884,240.100 367.434,241.200 367.039 C 242.300 366.643,243.200 366.193,243.200 366.039 C 243.200 365.884,244.086 365.440,245.168 365.050 C 246.251 364.661,247.222 364.121,247.326 363.849 C 247.430 363.578,248.254 363.112,249.157 362.814 C 250.061 362.516,250.800 362.145,250.800 361.990 C 250.800 361.835,251.655 361.384,252.700 360.986 C 253.745 360.589,254.780 360.052,255.000 359.794 C 255.220 359.535,256.030 359.078,256.800 358.779 C 257.570 358.479,258.438 358.001,258.729 357.717 C 259.019 357.433,259.514 357.200,259.829 357.200 C 260.143 357.200,260.736 356.864,261.146 356.454 C 261.557 356.043,262.727 355.389,263.746 354.999 C 264.766 354.610,265.600 354.151,265.600 353.979 C 265.600 353.807,266.410 353.357,267.400 352.979 C 268.390 352.601,269.202 352.181,269.205 352.046 C 269.207 351.911,269.972 351.443,270.905 351.006 C 271.837 350.569,272.690 350.101,272.800 349.965 C 272.910 349.829,273.720 349.383,274.600 348.974 C 275.480 348.565,276.438 347.999,276.729 347.715 C 277.019 347.432,277.480 347.200,277.753 347.200 C 278.026 347.200,278.598 346.883,279.025 346.495 C 279.451 346.107,280.565 345.450,281.500 345.034 C 282.435 344.618,283.200 344.166,283.200 344.029 C 283.200 343.892,284.008 343.424,284.996 342.990 C 285.984 342.555,286.794 342.092,286.796 341.961 C 286.798 341.829,287.565 341.384,288.500 340.972 C 289.435 340.560,290.336 340.006,290.503 339.741 C 290.670 339.477,291.435 339.053,292.203 338.799 C 292.971 338.545,293.600 338.191,293.600 338.012 C 293.600 337.833,294.320 337.399,295.200 337.047 C 296.080 336.695,296.800 336.260,296.800 336.080 C 296.800 335.901,297.561 335.418,298.491 335.008 C 299.421 334.598,300.535 333.933,300.966 333.531 C 301.398 333.129,301.974 332.800,302.247 332.800 C 302.520 332.800,303.019 332.523,303.357 332.185 C 303.695 331.847,304.608 331.305,305.386 330.980 C 306.164 330.655,306.800 330.239,306.800 330.055 C 306.800 329.872,307.564 329.379,308.497 328.961 C 309.430 328.542,310.510 327.885,310.897 327.500 C 311.284 327.115,311.861 326.800,312.180 326.800 C 312.499 326.800,312.904 326.573,313.080 326.296 C 313.256 326.019,314.120 325.434,315.000 324.996 C 315.880 324.558,316.744 323.975,316.920 323.700 C 317.096 323.425,317.467 323.200,317.744 323.200 C 318.022 323.200,318.647 322.829,319.134 322.376 C 319.621 321.922,320.645 321.290,321.409 320.970 C 322.174 320.651,322.800 320.245,322.800 320.069 C 322.800 319.892,323.430 319.448,324.200 319.081 C 324.970 318.713,325.600 318.230,325.600 318.006 C 325.600 317.783,325.881 317.600,326.224 317.600 C 326.567 317.600,326.736 317.420,326.600 317.200 C 326.437 316.936,304.863 316.800,263.176 316.800 L 200.000 316.800 200.000 350.200 " stroke="none" fill="#5cccfc" fill-rule="evenodd"></path><path id="path2" d="M194.634 17.039 C 193.333 17.354,192.073 17.764,191.834 17.951 C 191.595 18.137,190.320 18.618,189.000 19.020 C 187.680 19.422,186.510 19.878,186.400 20.035 C 186.290 20.191,185.210 20.642,184.000 21.036 C 182.790 21.430,181.562 21.988,181.271 22.276 C 180.981 22.564,180.457 22.800,180.107 22.800 C 179.757 22.800,178.734 23.230,177.835 23.756 C 176.936 24.282,175.435 24.940,174.500 25.219 C 173.565 25.498,172.800 25.842,172.800 25.983 C 172.800 26.124,172.125 26.478,171.300 26.769 C 170.475 27.060,169.530 27.512,169.200 27.774 C 168.870 28.036,167.790 28.594,166.800 29.014 C 165.810 29.434,164.910 29.878,164.800 30.000 C 164.690 30.122,163.790 30.572,162.800 31.000 C 161.810 31.428,160.910 31.883,160.800 32.012 C 160.690 32.140,159.970 32.490,159.200 32.789 C 158.430 33.087,157.530 33.538,157.200 33.791 C 156.870 34.043,155.790 34.594,154.800 35.014 C 153.810 35.434,152.901 35.915,152.780 36.082 C 152.591 36.345,149.690 37.904,143.919 40.845 C 143.105 41.260,142.250 41.600,142.019 41.600 C 141.789 41.600,141.600 41.766,141.600 41.969 C 141.600 42.172,140.971 42.545,140.203 42.799 C 139.435 43.053,138.670 43.477,138.503 43.741 C 138.336 44.006,137.390 44.573,136.400 45.000 C 135.410 45.428,134.510 45.887,134.400 46.019 C 134.195 46.267,129.356 48.949,125.817 50.776 C 124.726 51.339,123.588 52.025,123.288 52.300 C 122.988 52.575,122.520 52.800,122.247 52.800 C 121.974 52.800,121.397 53.115,120.965 53.500 C 120.532 53.885,119.463 54.558,118.589 54.996 C 117.715 55.434,116.910 55.886,116.800 56.000 C 116.690 56.114,115.885 56.566,115.011 57.004 C 114.137 57.442,113.237 57.943,113.011 58.117 C 111.894 58.979,108.131 61.232,107.443 61.450 C 107.013 61.586,106.468 61.859,106.231 62.056 C 105.309 62.823,102.183 64.786,101.872 64.793 C 101.692 64.797,100.759 65.340,99.800 66.000 C 98.841 66.660,97.900 67.200,97.709 67.200 C 97.519 67.200,97.011 67.472,96.581 67.805 C 96.152 68.137,94.900 68.974,93.800 69.665 C 92.700 70.355,91.170 71.331,90.400 71.833 C 89.630 72.335,88.505 72.967,87.900 73.237 C 87.295 73.507,86.800 73.880,86.800 74.064 C 86.800 74.249,86.607 74.400,86.372 74.400 C 86.137 74.400,85.159 74.940,84.200 75.600 C 83.241 76.260,82.308 76.800,82.128 76.800 C 81.948 76.801,81.314 77.206,80.719 77.700 C 80.124 78.195,78.706 79.140,77.567 79.800 C 76.428 80.460,75.187 81.288,74.808 81.640 C 74.430 81.992,73.553 82.531,72.860 82.837 C 72.167 83.144,71.600 83.528,71.600 83.690 C 71.600 83.851,70.880 84.351,70.000 84.800 C 69.120 85.249,68.398 85.748,68.395 85.908 C 68.393 86.069,67.673 86.544,66.795 86.964 C 65.918 87.385,65.200 87.846,65.200 87.990 C 65.200 88.134,64.570 88.552,63.800 88.919 C 63.030 89.287,62.400 89.770,62.400 89.994 C 62.400 90.217,62.168 90.400,61.885 90.400 C 61.602 90.400,60.747 90.933,59.985 91.584 C 59.223 92.235,58.420 92.775,58.200 92.784 C 57.980 92.793,57.320 93.206,56.734 93.700 C 56.147 94.195,54.365 95.590,52.772 96.800 C 51.180 98.010,49.544 99.315,49.138 99.700 C 48.732 100.085,48.265 100.403,48.100 100.407 C 47.661 100.418,40.800 107.422,40.800 107.860 C 40.800 108.064,41.745 108.780,42.900 109.451 C 47.814 112.305,64.370 121.870,71.400 125.918 C 74.260 127.564,78.895 130.237,81.700 131.856 C 94.003 138.958,97.224 140.816,100.800 142.870 C 105.599 145.627,111.552 149.086,116.252 151.852 C 120.621 154.422,119.978 154.380,122.186 152.235 C 126.009 148.519,137.124 140.872,148.800 133.924 C 150.450 132.942,153.330 131.230,155.200 130.119 C 172.089 120.090,193.241 109.509,198.588 108.415 L 199.800 108.167 199.902 62.284 L 200.003 16.400 198.502 16.433 C 197.676 16.452,195.935 16.724,194.634 17.039 M119.056 158.484 C 118.921 158.988,118.828 159.850,118.849 160.400 C 118.872 160.989,119.031 160.671,119.236 159.625 C 119.603 157.752,119.473 156.927,119.056 158.484 M117.720 173.600 C 117.720 174.810,117.795 175.305,117.887 174.700 C 117.978 174.095,117.978 173.105,117.887 172.500 C 117.795 171.895,117.720 172.390,117.720 173.600 M117.355 186.200 C 117.356 189.060,117.420 190.178,117.497 188.683 C 117.574 187.189,117.574 184.849,117.496 183.483 C 117.418 182.118,117.355 183.340,117.355 186.200 M116.850 199.433 C 116.878 203.815,117.030 210.010,117.188 213.200 C 117.354 216.558,117.394 213.274,117.283 205.400 C 117.177 197.920,117.025 191.725,116.945 191.633 C 116.865 191.542,116.823 195.052,116.850 199.433 M117.720 226.400 C 117.720 227.610,117.795 228.105,117.887 227.500 C 117.978 226.895,117.978 225.905,117.887 225.300 C 117.795 224.695,117.720 225.190,117.720 226.400 M118.828 239.833 C 118.844 240.475,119.016 241.360,119.210 241.800 C 119.447 242.334,119.486 242.002,119.327 240.800 C 119.046 238.680,118.788 238.180,118.828 239.833 M120.800 246.525 C 120.800 246.594,121.385 247.179,122.100 247.825 L 123.400 249.000 122.225 247.700 C 121.130 246.488,120.800 246.216,120.800 246.525 " stroke="none" fill="#9bcb63" fill-rule="evenodd"></path><path id="path3" d="M39.887 109.700 C 39.555 110.415,39.075 112.350,38.819 114.000 C 38.563 115.650,38.190 117.360,37.990 117.800 C 37.589 118.681,36.400 130.228,36.400 133.238 C 36.400 134.280,36.246 135.193,36.057 135.267 C 35.584 135.451,34.805 151.926,34.516 167.900 C 34.383 175.215,34.123 181.200,33.937 181.200 C 33.752 181.200,33.600 189.660,33.600 200.000 C 33.600 210.340,33.752 218.800,33.937 218.800 C 34.123 218.800,34.383 224.785,34.516 232.100 C 34.805 248.074,35.584 264.549,36.057 264.733 C 36.246 264.807,36.400 265.720,36.400 266.762 C 36.400 269.772,37.589 281.319,37.990 282.200 C 38.190 282.640,38.562 284.350,38.816 286.000 C 39.070 287.650,39.661 289.810,40.130 290.800 C 40.890 292.406,47.373 299.574,48.082 299.593 C 48.237 299.597,48.796 300.005,49.325 300.500 C 50.295 301.409,50.592 301.642,54.195 304.318 C 55.293 305.133,56.541 306.115,56.971 306.500 C 57.400 306.885,57.978 307.200,58.256 307.200 C 58.533 307.200,58.904 307.439,59.080 307.731 C 59.256 308.023,60.030 308.608,60.800 309.031 C 61.570 309.454,62.331 310.001,62.491 310.248 C 62.650 310.494,63.325 310.921,63.991 311.196 C 64.656 311.472,65.200 311.847,65.200 312.030 C 65.200 312.213,65.875 312.676,66.700 313.060 C 67.525 313.443,68.331 313.968,68.491 314.226 C 68.650 314.484,69.325 314.921,69.991 315.196 C 70.656 315.472,71.200 315.847,71.200 316.030 C 71.200 316.213,71.875 316.676,72.700 317.060 C 73.525 317.443,74.331 317.968,74.491 318.226 C 74.650 318.484,75.325 318.921,75.991 319.196 C 76.656 319.472,77.200 319.828,77.200 319.988 C 77.200 320.148,77.920 320.603,78.800 321.000 C 79.680 321.397,80.400 321.844,80.400 321.993 C 80.400 322.143,80.895 322.520,81.500 322.832 C 82.105 323.145,83.346 323.895,84.258 324.500 C 85.170 325.105,86.115 325.600,86.358 325.600 C 86.601 325.600,86.800 325.778,86.800 325.995 C 86.800 326.212,87.385 326.665,88.100 327.003 C 89.627 327.724,92.412 329.373,93.038 329.927 C 93.278 330.140,94.079 330.627,94.818 331.009 C 95.557 331.391,96.408 331.950,96.709 332.252 C 97.010 332.553,97.437 332.800,97.657 332.800 C 97.876 332.800,98.808 333.315,99.728 333.945 C 100.648 334.575,101.805 335.217,102.300 335.372 C 102.795 335.527,103.200 335.794,103.200 335.966 C 103.200 336.138,103.920 336.603,104.800 337.000 C 105.680 337.397,106.400 337.847,106.400 338.000 C 106.400 338.153,107.075 338.577,107.900 338.942 C 109.385 339.599,112.227 341.231,113.000 341.871 C 113.220 342.053,114.163 342.562,115.095 343.001 C 116.028 343.440,116.793 343.908,116.795 344.039 C 116.798 344.171,117.565 344.618,118.500 345.034 C 119.435 345.450,120.549 346.107,120.975 346.495 C 121.402 346.883,121.974 347.200,122.247 347.200 C 122.520 347.200,122.981 347.428,123.271 347.707 C 123.562 347.986,124.565 348.553,125.500 348.968 C 126.435 349.382,127.202 349.829,127.204 349.961 C 127.206 350.092,128.016 350.555,129.004 350.990 C 129.992 351.424,130.800 351.894,130.800 352.035 C 130.800 352.176,131.610 352.601,132.600 352.979 C 133.590 353.357,134.400 353.807,134.400 353.979 C 134.400 354.151,135.234 354.610,136.254 354.999 C 137.273 355.389,138.443 356.043,138.854 356.454 C 139.264 356.864,139.857 357.200,140.171 357.200 C 140.486 357.200,140.981 357.433,141.271 357.717 C 141.562 358.001,142.430 358.490,143.200 358.802 C 143.970 359.115,145.210 359.782,145.956 360.285 C 146.702 360.788,147.544 361.200,147.827 361.200 C 148.111 361.200,148.581 361.433,148.871 361.717 C 149.162 362.001,150.030 362.479,150.800 362.779 C 151.570 363.078,152.380 363.532,152.600 363.787 C 152.820 364.042,153.854 364.599,154.899 365.025 C 155.943 365.451,156.798 365.917,156.799 366.060 C 156.799 366.203,157.700 366.643,158.800 367.039 C 159.900 367.434,160.800 367.884,160.800 368.039 C 160.800 368.193,161.700 368.643,162.800 369.039 C 163.900 369.434,164.800 369.884,164.800 370.039 C 164.800 370.193,165.700 370.643,166.800 371.039 C 167.900 371.434,168.800 371.878,168.800 372.025 C 168.800 372.171,169.655 372.614,170.700 373.009 C 171.745 373.404,172.690 373.852,172.800 374.004 C 172.910 374.157,173.945 374.593,175.100 374.973 C 176.255 375.353,177.200 375.805,177.200 375.977 C 177.200 376.150,178.190 376.602,179.400 376.982 C 180.610 377.363,181.600 377.804,181.600 377.962 C 181.600 378.119,182.680 378.572,184.000 378.968 C 185.320 379.363,186.400 379.823,186.400 379.991 C 186.400 380.158,187.525 380.608,188.900 380.990 C 190.275 381.373,191.592 381.841,191.826 382.030 C 192.424 382.514,197.139 383.587,198.700 383.594 L 200.000 383.600 200.000 337.787 C 200.000 301.471,199.896 291.949,199.500 291.850 C 185.484 288.354,132.471 258.087,122.000 247.602 C 118.925 244.524,118.097 238.659,117.166 213.362 C 116.433 193.439,117.703 163.505,119.566 156.800 L 120.288 154.200 117.644 152.648 C 114.959 151.071,107.692 146.857,100.800 142.880 C 92.707 138.209,86.599 134.684,81.700 131.856 C 78.895 130.237,74.260 127.564,71.400 125.918 C 68.540 124.271,63.860 121.572,61.000 119.919 C 58.140 118.267,53.460 115.564,50.600 113.914 C 47.740 112.263,44.447 110.347,43.282 109.656 C 40.667 108.105,40.628 108.105,39.887 109.700 " stroke="none" fill="#644838" fill-rule="evenodd"></path><path id="path4" d="M263.311 83.101 L 200.022 83.202 199.911 95.776 L 199.800 108.349 201.200 108.603 C 206.934 109.645,235.502 124.276,253.066 135.167 C 253.983 135.735,256.040 137.010,257.638 138.000 C 276.381 149.612,280.800 153.843,280.800 160.179 C 280.800 160.736,285.120 160.800,323.000 160.800 L 365.200 160.800 365.204 157.900 C 365.213 152.220,364.273 135.398,363.939 135.267 C 363.753 135.193,363.600 134.309,363.600 133.301 C 363.600 130.528,362.323 117.828,362.022 117.600 C 361.876 117.490,361.449 115.629,361.072 113.464 C 360.694 111.300,360.119 109.262,359.793 108.936 C 359.467 108.610,359.200 108.151,359.200 107.915 C 359.200 107.451,352.380 100.419,351.918 100.407 C 351.763 100.403,351.204 99.995,350.675 99.500 C 350.147 99.005,349.232 98.240,348.642 97.800 C 348.052 97.360,347.099 96.595,346.526 96.100 C 345.952 95.605,345.374 95.200,345.242 95.199 C 345.109 95.199,344.370 94.659,343.600 94.000 C 342.830 93.341,341.981 92.801,341.714 92.801 C 341.447 92.800,341.057 92.479,340.847 92.088 C 340.637 91.696,339.821 91.122,339.033 90.813 C 338.245 90.504,337.600 90.101,337.600 89.919 C 337.600 89.736,336.970 89.287,336.200 88.919 C 335.430 88.552,334.800 88.105,334.800 87.925 C 334.800 87.745,334.080 87.286,333.200 86.904 C 332.320 86.523,331.600 86.078,331.600 85.916 C 331.600 85.753,331.015 85.318,330.300 84.949 C 329.585 84.579,328.820 84.053,328.600 83.779 C 327.959 82.981,329.392 82.996,263.311 83.101 M120.229 155.029 C 120.081 155.615,120.038 156.172,120.132 156.266 C 120.227 156.360,120.424 155.958,120.571 155.371 C 120.719 154.785,120.762 154.228,120.668 154.134 C 120.573 154.040,120.376 154.442,120.229 155.029 M118.800 161.664 C 118.800 161.992,118.630 164.137,118.423 166.431 C 117.867 172.587,117.543 178.590,117.780 178.353 C 118.067 178.066,119.250 161.516,119.001 161.268 C 118.890 161.157,118.800 161.335,118.800 161.664 M117.371 200.000 C 117.371 204.950,117.428 206.975,117.499 204.500 C 117.569 202.025,117.569 197.975,117.499 195.500 C 117.428 193.025,117.371 195.050,117.371 200.000 M117.828 225.833 C 117.954 228.235,118.224 231.858,118.428 233.884 C 118.633 235.911,118.800 237.876,118.800 238.251 C 118.800 238.626,118.890 238.843,119.001 238.732 C 119.242 238.491,118.071 221.938,117.793 221.660 C 117.687 221.553,117.702 223.431,117.828 225.833 M280.283 242.462 C 279.731 245.267,279.428 245.946,278.120 247.304 C 275.976 249.532,270.519 253.562,262.800 258.621 C 258.474 261.456,256.466 262.704,248.895 267.264 C 237.900 273.886,214.179 286.573,209.600 288.281 C 208.610 288.651,207.440 289.168,207.000 289.430 C 205.546 290.298,200.878 291.594,199.729 291.450 C 199.108 291.372,198.915 291.386,199.300 291.482 C 199.948 291.643,200.000 292.587,200.000 304.228 L 200.000 316.800 263.300 316.863 C 333.316 316.933,328.051 316.983,328.600 316.254 C 328.820 315.962,329.585 315.421,330.300 315.051 C 331.015 314.682,331.600 314.247,331.600 314.084 C 331.600 313.922,332.320 313.477,333.200 313.096 C 334.080 312.714,334.800 312.255,334.800 312.075 C 334.800 311.895,335.430 311.448,336.200 311.081 C 336.970 310.713,337.600 310.264,337.600 310.081 C 337.600 309.899,338.245 309.496,339.033 309.187 C 339.821 308.878,340.637 308.304,340.847 307.912 C 341.057 307.521,341.447 307.200,341.714 307.199 C 341.981 307.199,342.830 306.659,343.600 306.000 C 344.370 305.341,345.109 304.801,345.242 304.801 C 345.374 304.800,345.952 304.395,346.526 303.900 C 347.099 303.405,348.052 302.640,348.642 302.200 C 349.232 301.760,350.147 300.995,350.675 300.500 C 351.204 300.005,351.763 299.597,351.918 299.593 C 352.380 299.581,359.200 292.549,359.200 292.085 C 359.200 291.849,359.467 291.390,359.793 291.064 C 360.119 290.738,360.694 288.700,361.072 286.536 C 361.449 284.371,361.876 282.510,362.022 282.400 C 362.323 282.172,363.600 269.472,363.600 266.699 C 363.600 265.691,363.753 264.807,363.939 264.733 C 364.273 264.602,365.213 247.780,365.204 242.100 L 365.200 239.200 323.063 239.200 L 280.926 239.200 280.283 242.462 M119.648 242.800 C 119.642 243.130,119.883 243.940,120.186 244.600 C 120.893 246.145,120.903 245.426,120.200 243.600 C 119.903 242.830,119.655 242.470,119.648 242.800 M122.000 247.400 C 122.746 248.170,123.447 248.800,123.557 248.800 C 123.667 248.800,123.146 248.170,122.400 247.400 C 121.654 246.630,120.953 246.000,120.843 246.000 C 120.733 246.000,121.254 246.630,122.000 247.400 M133.600 256.124 C 133.600 256.217,134.365 256.798,135.300 257.415 C 136.235 258.032,136.789 258.280,136.531 257.968 C 136.034 257.367,133.600 255.836,133.600 256.124 M141.000 261.007 C 141.440 261.366,142.160 261.835,142.600 262.051 L 143.400 262.444 142.600 261.793 C 142.160 261.434,141.440 260.965,141.000 260.749 L 140.200 260.356 141.000 261.007 M147.774 265.158 C 147.923 265.399,148.416 265.795,148.871 266.038 C 149.462 266.354,149.620 266.356,149.426 266.042 C 149.277 265.801,148.784 265.405,148.329 265.162 C 147.738 264.846,147.580 264.844,147.774 265.158 M165.400 275.600 C 166.060 276.037,166.780 276.395,167.000 276.395 C 167.220 276.395,166.860 276.037,166.200 275.600 C 165.540 275.163,164.820 274.805,164.600 274.805 C 164.380 274.805,164.740 275.163,165.400 275.600 M169.110 277.601 C 170.808 278.637,171.364 278.636,169.800 277.600 C 169.140 277.163,168.420 276.805,168.200 276.804 C 167.980 276.804,168.389 277.162,169.110 277.601 M188.176 287.420 C 189.036 288.062,189.768 288.196,189.430 287.648 C 189.310 287.455,188.805 287.194,188.306 287.068 C 187.432 286.848,187.427 286.860,188.176 287.420 M192.800 289.400 C 193.350 289.714,193.980 289.972,194.200 289.972 C 194.420 289.972,194.150 289.714,193.600 289.400 C 193.050 289.086,192.420 288.828,192.200 288.828 C 191.980 288.828,192.250 289.086,192.800 289.400 " stroke="none" fill="#f3abbb" fill-rule="evenodd"></path></g></svg>