<?xml version="1.0" standalone="no"?>
<!DOCTYPE svg PUBLIC "-//W3C//DTD SVG 20010904//EN"
 "http://www.w3.org/TR/2001/REC-SVG-20010904/DTD/svg10.dtd">
<svg version="1.0" xmlns="http://www.w3.org/2000/svg"
 width="800.000000pt" height="800.000000pt" viewBox="0 0 800.000000 800.000000"
 preserveAspectRatio="xMidYMid meet">

<g transform="translate(0.000000,800.000000) scale(0.100000,-0.100000)"
fill="#000000" stroke="none">
<path d="M801 5763 c-39 -132 -67 -390 -93 -843 -17 -302 -17 -1538 0 -1840
27 -474 61 -762 102 -873 34 -91 184 -222 505 -440 523 -354 1335 -827 1955
-1138 352 -176 557 -262 703 -293 l27 -6 -2 916 -3 916 -76 24 c-219 69 -968
488 -1329 743 -142 100 -186 146 -199 209 -67 322 -66 1467 3 1730 l12 49
-725 419 c-398 231 -755 436 -792 457 l-68 38 -20 -68z"/>
</g>
</svg>
